<?xml version="1.0" encoding="UTF-8"?>
<svg width="13px" height="17px" viewBox="0 0 13 17" version="1.1" xmlns="http://www.w3.org/2000/svg" xmlns:xlink="http://www.w3.org/1999/xlink">
    <title>Group 4@3x</title>
    <g id="Page-1" stroke="none" stroke-width="1" fill="none" fill-rule="evenodd" stroke-linecap="round" stroke-linejoin="round">
        <g id="iPhone-12-Copy-4" transform="translate(-270.000000, -240.000000)" stroke="#FFFFFF">
            <g id="Group-11" transform="translate(16.000000, 183.000000)">
                <g id="Group-4" transform="translate(255.000000, 58.000000)">
                    <path d="M3.72171406,3.7272412 C3.72171406,4.75496359 2.8886336,5.58815242 1.86091122,5.58815242 C0.833188833,5.58815242 0,4.75496359 0,3.7272412 C0,2.69962719 1.86091122,0 1.86091122,0 C1.86091122,0 3.72171406,2.69962719 3.72171406,3.7272412 Z" id="Stroke-123"></path>
                    <path d="M11,8.79971172 C11,10.0422338 9.99276053,11.0495817 8.75013005,11.0495817 C7.50760794,11.0495817 6.5002601,10.0422338 6.5002601,8.79971172 C6.5002601,7.55708124 8.75013005,4.29325256 8.75013005,4.29325256 C8.75013005,4.29325256 11,7.55708124 11,8.79971172 Z" id="Stroke-125"></path>
                    <path d="M4.27522976,13.4688421 C4.27522976,14.2680011 3.62736258,14.9158683 2.82820357,14.9158683 C2.02904456,14.9158683 1.38117739,14.2680011 1.38117739,13.4688421 C1.38117739,12.6696831 2.82820357,10.5704547 2.82820357,10.5704547 C2.82820357,10.5704547 4.27522976,12.6696831 4.27522976,13.4688421 Z" id="Stroke-127"></path>
                </g>
            </g>
        </g>
    </g>
</svg>